PERFORMER "Deep Dish"
TITLE "Essential Mix (2006-07-30) (Live @ Global Gathering 2006)"
FILE "01-deep_dish_-_essential_mix_live_at_global_gathering_2006-(Radio_1)-30-07-2006.mp3" MP3
  TRACK 01 AUDIO
    PERFORMER "Terranova & Leeds"
    TITLE "Only You"
    INDEX 01 00:00:00
  TRACK 02 AUDIO
    PERFORMER "Eddie Amador"
    TITLE "6am (Spider & Legaz Electro Mix)"
    INDEX 01 06:47:63
  TRACK 03 AUDIO
    PERFORMER "Gnarls Barkley"
    TITLE "Crazy (Richard Vission Remix)"
    INDEX 01 13:16:14
  TRACK 04 AUDIO
    PERFORMER "Lorraine"
    TITLE "Transatlantic Flight (Axwell Remix)"
    INDEX 01 18:24:31
  TRACK 05 AUDIO
    PERFORMER "Ali Dubfire"
    TITLE "I Feel Speed"
    INDEX 01 24:23:38
  TRACK 06 AUDIO
    PERFORMER "Sharam"
    TITLE "P.A.T.T. (Party All The Time)"
    INDEX 01 32:14:58
  TRACK 07 AUDIO
    PERFORMER "Deep Dish feat. Steve Nicks"
    TITLE "Dreams (Tocadisco Mix)"
    INDEX 01 41:16:56
  TRACK 08 AUDIO
    PERFORMER "ID"
    TITLE "ID"
    INDEX 01 46:52:15
  TRACK 09 AUDIO
    PERFORMER "Deep Dish feat. Anousheh Khalili"
    TITLE "Say Hello (Angello & Ingrosso Remix)"
    INDEX 01 53:54:50